# xmcd
#
# Track frame offsets: 
#        150
#        13163
#        14446
#        30024
#        37052
#        59020
#        71628
#        72851
#        88091
#        92389
#        114732
#
# Disc length: 1770 seconds
#
# Revision: 0
# Processed by: cddbd v1.5.2PL0 Copyright (c) Steve Scherf et al.
# Submitted via: ExactAudioCopy v0.99pb5
#
DISCID=8e06e80b
DTITLE=Highlands Country - September 19, 2010
DYEAR=2010
DGENRE=Country
TTITLE0=I Love My Life
TTITLE1=Melissa
TTITLE2=He Ain't Never Done Me Nothing But Good
TTITLE3=Announcements - Bill
TTITLE4=How Great Is Our God
TTITLE5=I Love My Life
TTITLE6=Melissa
TTITLE7=He Ain't Never Done Me Nothing But Good
TTITLE8=Announcements - Bill
TTITLE9=How Great Is Our God
TTITLE10=Amazing Grace
EXTD=
EXTT0=
EXTT1=
EXTT2=
EXTT3=
EXTT4=
EXTT5=
EXTT6=
EXTT7=
EXTT8=
EXTT9=
EXTT10=
PLAYORDER=
